<svg width="200" height="20" xmlns="http://www.w3.org/2000/svg">

 <g>
  <title>background</title>
  <rect fill="none" id="canvas_background" height="22" width="202" y="-1" x="-1"/>
 </g>
 <g>
  <title>Layer 1</title>
  <g stroke="null" id="svg_1">
   <path stroke="null" id="svg_2" d="m194.855075,5c-8.955998,0 -13.548817,2.3 -17.682355,4.3c-3.903896,2 -7.348511,3.7 -14.23774,3.7s-10.333844,-1.7 -14.23774,-3.7c-3.903896,-2 -8.496716,-4.3 -17.682355,-4.3c-8.955998,0 -13.548817,2.3 -17.682355,4.3c-3.903896,2 -7.348511,3.7 -14.23774,3.7c-6.889229,0 -10.333844,-1.7 -14.23774,-3.7c-4.133537,-2 -8.726357,-4.3 -17.682355,-4.3c-8.955998,0 -13.548817,2.3 -17.682355,4.3c-3.903896,2 -7.348511,3.7 -14.23774,3.7c-6.889229,0 -10.333844,-1.7 -14.23774,-3.7c-4.133537,-2 -8.726357,-4.3 -17.682355,-4.3c-1.377846,0 -2.29641,0.4 -2.29641,1s0.918564,1 2.29641,1c6.889229,0 10.333844,1.7 14.23774,3.7c4.133537,2 8.726357,4.3 17.682355,4.3c8.955998,0 13.548817,-2.3 17.682355,-4.3c3.903896,-2 7.348511,-3.7 14.23774,-3.7c6.889229,0 10.333844,1.7 14.23774,3.7c4.133537,2 8.726357,4.3 17.682355,4.3c8.955998,0 13.548817,-2.3 17.682355,-4.3c3.903896,-2 7.348511,-3.7 14.23774,-3.7c6.889229,0 10.333844,1.7 14.23774,3.7c4.133537,2 8.726357,4.3 17.682355,4.3c8.955998,0 13.548817,-2.3 17.682355,-4.3c3.903896,-2 7.348511,-3.7 14.23774,-3.7c1.377846,0 2.29641,-0.4 2.29641,-1s-0.918564,-1 -2.29641,-1z"/>
  </g>
 </g>
</svg>