<svg width="360" height="20" xmlns="http://www.w3.org/2000/svg">

 <g>
  <title>background</title>
  <rect fill="none" id="canvas_background" height="22" width="362" y="-1" x="-1"/>
 </g>
 <g>
  <title>Layer 1</title>
  <g stroke="null" id="svg_1">
   <path stroke="null" id="svg_2" d="m353.822645,5c-16.301656,0 -24.661479,2.202128 -32.18532,4.117021c-7.10585,1.914894 -13.375717,3.542553 -25.915453,3.542553s-18.809603,-1.62766 -25.915453,-3.542553c-7.10585,-1.914894 -15.465673,-4.117021 -32.18532,-4.117021c-16.301656,0 -24.661479,2.202128 -32.18532,4.117021c-7.10585,1.914894 -13.375717,3.542553 -25.915453,3.542553c-12.539735,0 -18.809603,-1.62766 -25.915453,-3.542553c-7.523841,-1.914894 -15.883664,-4.117021 -32.18532,-4.117021c-16.301656,0 -24.661479,2.202128 -32.18532,4.117021c-7.10585,1.914894 -13.375717,3.542553 -25.915453,3.542553c-12.539735,0 -18.809603,-1.62766 -25.915453,-3.542553c-7.523841,-1.914894 -15.883664,-4.117021 -32.18532,-4.117021c-2.507947,0 -4.179912,0.382979 -4.179912,0.957447s1.671965,0.957447 4.179912,0.957447c12.539735,0 18.809603,1.62766 25.915453,3.542553c7.523841,1.914894 15.883664,4.117021 32.18532,4.117021c16.301656,0 24.661479,-2.202128 32.18532,-4.117021c7.10585,-1.914894 13.375717,-3.542553 25.915453,-3.542553c12.539735,0 18.809603,1.62766 25.915453,3.542553c7.523841,1.914894 15.883664,4.117021 32.18532,4.117021c16.301656,0 24.661479,-2.202128 32.18532,-4.117021c7.10585,-1.914894 13.375717,-3.542553 25.915453,-3.542553c12.539735,0 18.809603,1.62766 25.915453,3.542553c7.523841,1.914894 15.883664,4.117021 32.18532,4.117021c16.301656,0 24.661479,-2.202128 32.18532,-4.117021c7.10585,-1.914894 13.375717,-3.542553 25.915453,-3.542553c2.507947,0 4.179912,-0.382979 4.179912,-0.957447s-1.671965,-0.957447 -4.179912,-0.957447z"/>
  </g>
 </g>
</svg>